PathFileType	4	(X/Y/Z)	C:/Users/opensim2020/Desktop/walking_exp_matlab/subject01_walking15_straight_01.trc																																																																																																																															
DataRate	CameraRate	NumFrames	NumMarkers	Units	OrigDataRate	OrigDataStartFrame	OrigNumFrames																																																																																																																											
100	100	4	43	mm	100	730	125																																																																																																																											
Frame#	Time	LFHD			RFHD			LBHD			RBHD			C7			T10			CLAV			STRN			RBAK			LSHO			LUPA			LELB			LFRM			LWRA			LWRB			LFIN			RSHO			RUPA			RELB			RFRM			RWRA			RWRB			RFIN			LASI			RASI			LPSI			RPSI			LTHI			LKNE			LTIB			LANK			LHEE			LTOE			RTHI			RKNE			RTIB			RANK			RHEE			RTOE			*39			*40			*41			*42		
		X1	Y1	Z1	X2	Y2	Z2	X3	Y3	Z3	X4	Y4	Z4	X5	Y5	Z5	X6	Y6	Z6	X7	Y7	Z7	X8	Y8	Z8	X9	Y9	Z9	X10	Y10	Z10	X11	Y11	Z11	X12	Y12	Z12	X13	Y13	Z13	X14	Y14	Z14	X15	Y15	Z15	X16	Y16	Z16	X17	Y17	Z17	X18	Y18	Z18	X19	Y19	Z19	X20	Y20	Z20	X21	Y21	Z21	X22	Y22	Z22	X23	Y23	Z23	X24	Y24	Z24	X25	Y25	Z25	X26	Y26	Z26	X27	Y27	Z27	X28	Y28	Z28	X29	Y29	Z29	X30	Y30	Z30	X31	Y31	Z31	X32	Y32	Z32	X33	Y33	Z33	X34	Y34	Z34	X35	Y35	Z35	X36	Y36	Z36	X37	Y37	Z37	X38	Y38	Z38	X39	Y39	Z39	X40	Y40	Z40	X41	Y41	Z41	X42	Y42	Z42	X43	Y43	Z43
																																																																																																																																		
63	0.62	-126.87096	1665.86377	1417.1582	-89.08954	1675.00232	1523.40808	-236.74998	1620.09534	1452.68958	-198.93764	1628.01282	1566.0835	-261.96637	1429.73816	1485.10339	-304.00882	1136.44067	1487.01941	-115.97485	1362.61304	1479.76184	-76.69695	1206.5282	1474.70959	-317.02728	1238.80798	1564.45337	-182.23476	1399.93689	1323.08105	-241.56314	1222.55115	1239.63062	-280.59607	1079.13367	1246.44519	-276.42114	966.8504	1220.39001	-234.56918	831.95319	1236.28748	-289.5206	844.61499	1214.36841	-265.81906	762.5014	1204.43335	-178.42181	1399.19739	1630.65027	-218.27951	1201.63342	1739.52148	-191.23189	1076.12341	1749.71436	-109.83421	980.93469	1768.79456	13.37247	918.23889	1732.79028	-20.19543	896.86243	1774.17847	51.11918	849.38019	1769.96155	-125.04684	931.34406	1380.37463	-136.28142	927.84296	1597.23022	-312.81696	941.48969	1420.14258	-318.66721	952.15942	1563.39941	-63.05433	616.25677	1317.297	-33.32806	486.75562	1341.62939	-48.43287	300.49048	1332.85852	-20.6572	78.41548	1385.60474	-55.56518	41.03319	1442.36682	123.74728	73.88758	1373.125	-261.24237	607.48309	1644.38342	-292.92896	450.41937	1619.22131	-386.44257	299.92126	1619.97424	-455.13055	103.732	1569.93103	-508.97717	79.99283	1518.20129	-328.32462	32.90689	1571.26868	-105.44919	1707.91846	1504.02222	1973.09802	1023.87201	-3102.02295	2012.43396	1022.0473	-3140.8291	NaN	NaN	NaN
64	0.63	-113.29591	1664.19067	1415.8728	-75.25903	1673.46265	1522.05188	-223.14111	1618.35022	1451.74866	-185.0896	1626.43579	1564.99609	-248.24033	1428.22253	1484.24426	-290.17715	1134.80042	1486.07874	-102.19417	1361.01038	1478.89075	-62.94345	1204.94824	1474.04712	-303.2804	1237.46594	1563.93774	-168.34532	1398.25171	1322.17188	-228.74843	1221.09619	1238.90063	-268.74127	1077.98193	1246.19348	-266.00409	965.79138	1220.27991	-225.41861	830.35126	1235.78198	-280.37631	843.69562	1214.2428	-257.77341	761.20313	1204.51282	-164.33176	1397.93713	1629.64624	-203.5029	1200.93994	1739.18042	-176.12112	1075.30188	1749.85693	-92.57452	981.7251	1768.34509	31.51808	921.83344	1731.63354	-1.2032	899.71472	1773.29004	71.07955	854.1795	1768.78259	-110.16457	929.92328	1380.56335	-122.98	926.46765	1597.43164	-298.28403	939.83685	1419.29236	-305.10449	951.20636	1562.41528	-52.08556	612.87048	1317.89502	-19.56231	484.95706	1342.73242	-25.68853	298.99078	1333.01819	12.9327	78.49703	1385.48657	-20.30869	38.76331	1442.11047	158.03952	80.73571	1375.17517	-251.68633	607.50757	1644.75085	-285.21616	450.67148	1619.7738	-381.31607	301.81406	1620.31226	-453.10202	106.5209	1570.65381	-508.03375	84.71051	1518.98621	-328.09396	32.86291	1571.29883	-91.77142	1706.36328	1502.64612	1973.16919	1023.56317	-3101.89502	2012.45532	1022.005	-3140.7229	NaN	NaN	NaN
65	0.64	-99.67641	1662.44214	1414.44556	-61.32783	1671.8501	1520.67383	-209.13101	1616.37268	1450.6123	-171.17519	1624.78235	1563.77466	-234.46451	1426.62659	1483.26624	-276.31601	1133.12109	1485.10669	-88.33248	1359.32434	1477.89331	-49.03286	1203.40393	1473.34607	-289.55722	1236.0304	1563.27856	-154.39066	1396.51221	1321.12744	-215.87642	1219.50354	1238.13293	-256.78836	1076.77502	1245.92627	-255.03619	964.53528	1219.97498	-215.72534	828.67206	1235.5365	-270.50797	842.53143	1214.00549	-248.8073	759.64648	1204.24329	-150.1698	1396.61682	1628.58508	-188.73872	1200.28015	1738.71362	-161.22104	1074.47412	1749.88806	-75.85365	982.33026	1767.87927	49.12379	925.11847	1730.41003	17.17735	902.29596	1772.28296	90.41312	858.4953	1767.51917	-95.11307	928.46698	1380.78442	-109.38853	925.18146	1597.60229	-283.62476	938.25964	1418.20825	-291.40555	950.05737	1561.18066	-40.86965	609.25964	1317.51038	-5.37261	483.25598	1343.45044	-4.00878	297.99796	1333.32458	43.47092	78.73808	1386.01453	11.87485	38.02573	1443.01172	189.15804	86.64826	1376.97327	-241.48148	607.54047	1645.31494	-276.6925	450.66827	1620.23364	-375.54224	303.54318	1620.64331	-450.92886	109.47798	1571.56152	-505.81412	88.77019	1520.25061	-327.7467	32.82215	1571.31873	-78.05686	1704.72839	1501.19507	1973.03503	1023.56317	-3101.96802	2012.4834	1022.02582	-3140.74731	NaN	NaN	NaN
66	0.65	-85.92551	1660.72827	1412.97888	-47.50197	1670.26404	1519.12354	-195.58038	1614.75806	1449.21753	-157.28548	1623.15613	1562.37695	-220.74356	1425.0238	1482.02808	-262.23083	1131.3385	1484.11963	-74.41709	1357.67126	1476.69812	-35.0827	1201.8385	1472.53821	-275.78705	1234.63257	1562.45386	-140.39221	1394.63855	1319.87305	-202.76781	1217.81396	1237.2113	-244.16435	1075.27405	1245.31799	-243.48869	963.07849	1219.46118	-205.17291	826.91656	1234.854	-259.99243	841.19269	1213.7041	-239.11896	758.16559	1203.79871	-136.04832	1395.3335	1627.30029	-173.96333	1199.66797	1738.07007	-146.49484	1073.67358	1749.70972	-59.58442	982.87054	1767.28516	66.17362	928.12616	1729.17834	34.769	904.48657	1770.99902	108.99686	862.63733	1766.25415	-79.91733	926.91229	1381.15759	-95.13815	923.91248	1597.6427	-268.59781	936.54175	1416.91711	-277.39645	948.93738	1559.81348	-29.28859	605.75073	1316.29492	8.93523	481.85919	1343.90002	16.21249	297.12708	1334.03589	70.95059	79.41484	1387.3147	40.57897	37.86859	1444.53271	216.70503	90.96031	1378.45313	-230.64708	607.21277	1645.91797	-267.25684	450.45972	1620.68311	-368.94107	305.24594	1621.16211	-448.27063	112.56755	1572.5282	-504.33813	94.12695	1521.32336	-327.39862	32.73345	1571.2312	-64.27448	1703.05847	1499.65295	1973.12671	1023.56256	-3102.0647	2012.58789	1022.16516	-3140.68848	NaN	NaN	NaN
